<svg width="38" height="38" viewBox="0 0 38 38" fill="none" xmlns="http://www.w3.org/2000/svg">
<path fill-rule="evenodd" clip-rule="evenodd" d="M30.482 33.5743C34.9039 30.1443 37.75 24.7795 37.75 18.75C37.75 8.39465 29.3554 0 19 0C8.64465 0 0.25 8.39465 0.25 18.75C0.25 29.0027 8.47907 37.3334 18.6926 37.4976V37.5H34.3689L30.482 33.5743ZM31.6024 18.75C31.6024 25.7101 25.9601 31.3524 19 31.3524C12.0399 31.3524 6.39756 25.7101 6.39756 18.75C6.39756 11.7899 12.0399 6.14756 19 6.14756C25.9601 6.14756 31.6024 11.7899 31.6024 18.75Z" fill="#2E7BFD"/>
<path fill-rule="evenodd" clip-rule="evenodd" d="M13.9194 17.0692L13.1785 18.1682C12.7168 18.7776 11.7658 20.3482 11.655 21.7553C11.5996 22.3646 11.752 23.7718 12.8045 24.5252C13.2708 24.8899 14.6272 25.4005 16.3224 24.5252C16.581 24.4018 17.0256 24.1784 17.3688 23.9781C17.3769 23.9774 17.3849 23.9767 17.3928 23.9758C17.4346 23.9611 17.5369 23.8937 17.6782 23.7916C17.8859 24.2607 18.1734 24.6744 18.3346 24.8704C19.2875 26.0116 20.7352 25.9553 21.34 25.7845C22.5255 25.6072 24.2254 24.5103 24.9271 23.984C26.0905 23.1088 27.4154 21.4957 27.9325 20.7986C28.4865 19.9581 28.8407 18.9886 28.9019 18.4485C29.0238 17.3738 28.5095 16.5695 28.251 16.3018C27.3952 15.4154 26.4136 15.577 25.9935 15.7478C25.1348 15.9694 24.4147 17.4516 24.1377 18.1533L22.9743 20.6463C22.376 21.6989 21.9402 22.0451 21.797 22.0867C21.3428 22.3636 21.1185 22.1466 21.063 22.0036C20.9263 21.6813 21.0808 21.0125 21.2079 20.6118C21.688 19.9786 22.0259 19.3918 22.1848 19.0592C23.0601 17.4416 22.6326 16.1508 22.3094 15.7076C21.7554 14.6661 20.5736 14.7843 20.0519 14.9735C18.9661 15.3392 18.4915 16.5293 18.39 17.0787L17.8775 19.0592C17.4897 20.4109 16.4602 21.3952 15.994 21.7184C15.3332 22.1455 14.8277 22.3249 14.5266 22.3857C14.4179 22.0577 14.3873 21.5821 14.5912 20.952C14.811 20.4917 15.322 19.5174 15.761 18.9625C15.7609 18.9656 15.7608 18.9686 15.7607 18.9717L15.7999 18.9142C15.8362 18.87 15.8719 18.8289 15.9069 18.7914C15.9078 18.7792 15.9086 18.7666 15.9094 18.7536L16.7995 17.4482C17.5307 16.163 17.3258 15.103 17.1319 14.7337C16.6997 13.659 15.0313 13.3349 14.2511 13.3072C11.9908 13.1853 10.4286 14.1243 9.93 14.609C9.13222 15.1963 9.18208 16.211 9.30673 16.6449C9.51724 17.4649 9.96693 17.7806 10.1654 17.8361C10.7194 18.1795 12.326 17.6467 13.06 17.3375C13.3694 17.2027 13.6661 17.1191 13.9194 17.0692Z" fill="#2E7BFD"/>
</svg>
